<?xml version="1.0" encoding="UTF-8"?><svg id="Calque_1" xmlns="http://www.w3.org/2000/svg" viewBox="0 0 483 701"><defs><style>.cls-1{fill:#000;stroke-width:0px;}</style></defs><path class="cls-1" d="M37.48,543.81c21.75-44.56,63.98-85.08,126.73-121.53l93.63-54.17c41.94-24.41,71.34-45.23,88.23-62.48,26.61-27.03,39.92-57.95,39.92-92.8,0-40.69-12.17-73-36.52-96.94-24.34-23.92-56.81-35.89-97.39-35.89-60.06,0-101.61,22.8-124.64,68.39-12.34,24.44-19.16,58.3-20.45,101.61H17c.97-60.75,12.2-110.3,33.67-148.64C88.73,33.8,155.91,0,252.2,0c80.02,0,138.48,21.62,175.41,64.86s55.39,91.34,55.39,144.31c0,55.91-19.66,103.69-58.97,143.34-22.75,23.09-63.5,51.06-122.25,83.92l-66.72,37.09c-31.81,17.58-56.89,34.34-75.2,50.28-32.73,28.31-53.36,59.7-61.86,94.19h382v83H0c3.23-60.22,15.73-112.61,37.48-157.19Z"/></svg>