<?xml version="1.0" encoding="UTF-8"?><svg id="Calque_1" xmlns="http://www.w3.org/2000/svg" viewBox="0 0 489 720"><defs><style>.cls-1{fill:#000;stroke-width:0px;}</style></defs><path class="cls-1" d="M55.94,651.86C18.64,606.42,0,551.14,0,486h92c3.91,45.31,12.36,78.22,25.38,98.75,22.75,36.84,63.89,55.25,123.42,55.25,46.19,0,83.27-12.38,111.23-37.16,27.97-24.77,41.97-56.7,41.97-95.81,0-48.22-14.73-81.95-44.17-101.19-29.44-19.22-70.34-28.84-122.72-28.84-5.86,0-11.8.09-17.81.25-6.03.17-12.12.42-18.3.75v-78c9.12,1.2,16.8,2,22.98,2.41s12.88.59,20.06.59c32.94,0,60-5.22,81.19-15.69,37.17-18.28,55.77-50.95,55.77-98.02,0-34.95-12.33-61.91-36.95-80.86-24.64-18.95-53.33-28.44-86.06-28.44-58.36,0-98.72,19.61-121.08,58.83-12.31,21.58-19.28,52.3-20.91,92.17H18c0-52.2,10.41-96.58,31.22-133.12C85,32.62,147.94,0,238.05,0c71.23,0,126.38,15.91,165.41,47.7,39.03,31.81,58.55,77.89,58.55,138.23,0,43.06-11.53,77.95-34.56,104.7-14.28,16.64-32.77,29.69-55.48,39.14,36.73,10.09,65.42,29.55,86.08,58.36,20.64,28.81,30.97,64.06,30.97,105.73,0,66.75-21.98,121.12-65.95,163.12s-106.33,63-187.09,63-142.73-22.7-180.02-68.14Z"/></svg>