<?xml version="1.0" encoding="UTF-8"?><svg id="Calque_1" xmlns="http://www.w3.org/2000/svg" viewBox="0 0 482 718"><defs><style>.cls-1{fill:#000;stroke-width:0px;}</style></defs><path class="cls-1" d="M435.17,111.78c31.22,57.59,46.83,136.5,46.83,236.72,0,95.03-14.16,173.61-42.44,235.77-40.98,89.16-107.98,133.73-201,133.73-83.92,0-146.38-36.44-187.34-109.33C17.06,547.83,0,466.14,0,363.64c0-79.39,10.23-147.56,30.73-204.52C69.11,53.05,138.55,0,239.05,0c90.41,0,155.78,37.27,196.13,111.78ZM346.53,577.58c26.97-40.28,40.47-115.34,40.47-225.16,0-79.27-9.75-144.48-29.25-195.66s-57.36-76.77-113.58-76.77c-51.69,0-89.47,24.3-113.34,72.86-23.89,48.58-35.83,120.14-35.83,214.67,0,71.16,7.62,128.33,22.91,171.55,23.41,65.95,63.38,98.92,119.92,98.92,45.5,0,81.73-20.14,108.7-60.42Z"/></svg>