<?xml version="1.0" encoding="UTF-8"?><svg id="Calque_1" xmlns="http://www.w3.org/2000/svg" viewBox="0 0 342.14 503.47"><defs><style>.cls-1{fill:#000;stroke-width:0px;}</style></defs><path class="cls-1" d="M39.14,455.79C13.04,424,0,385.32,0,339.75h64.26c2.73,31.67,8.66,54.69,17.77,69.04,15.95,25.75,44.78,38.62,86.47,38.62,32.35,0,58.33-8.66,77.93-25.98,19.6-17.31,29.4-39.65,29.4-66.99,0-33.72-10.31-57.3-30.93-70.75-20.62-13.44-49.28-20.17-85.96-20.17-4.1,0-8.26.06-12.48.17-4.22.12-8.49.29-12.82.51v-54.35c6.38.68,11.73,1.14,16.06,1.37,4.33.23,9,.34,14.01.34,23.01,0,41.92-3.64,56.74-10.94,25.98-12.76,38.96-35.55,38.96-68.36,0-24.38-8.66-43.18-25.98-56.4-17.32-13.21-37.49-19.82-60.5-19.82-41.02,0-69.38,13.67-85.11,41.02-8.66,15.04-13.56,36.46-14.7,64.26H12.3c0-36.46,7.29-67.45,21.88-92.97C59.24,22.79,103.33,0,166.46,0c49.9,0,88.53,11.11,115.87,33.33,27.34,22.22,41.02,54.4,41.02,96.56,0,30.08-8.09,54.46-24.27,73.14-10.03,11.62-23.02,20.74-38.97,27.34,25.75,7.07,45.85,20.68,60.33,40.84,14.47,20.17,21.7,44.83,21.7,74,0,46.71-15.38,84.77-46.14,114.16-30.76,29.39-74.4,44.09-130.91,44.09s-99.86-15.89-125.95-47.68Z"/></svg>