<?xml version="1.0" encoding="UTF-8"?><svg id="Calque_1" xmlns="http://www.w3.org/2000/svg" viewBox="0 0 639.689053622158099 928.517936810454557"><defs><style>.cls-1{fill:#000;stroke-width:0px;}</style></defs><path class="cls-1" d="M49.430446451688113,720.457756974590666c28.642889886011289-59.011922346526262,84.534832605894735-112.642341372540614,167.675828159649427-160.891257078044873l124.060728349336387-71.723531647856362c55.568867906473315-32.307481340973027,94.550151821595136-59.89991654795449,116.953082454321702-82.777305620944389,35.317615531055708-35.820689169080651,52.985192470090624-76.821652203459962,52.985192470090624-123.001042961352141,0-53.953493839424482-16.153740670486513-96.791367955764144-48.462145082354255-128.513622349017169-32.307481340973027-31.722254393253024-75.387200031922475-47.582458518985732-129.229925363892107-47.582458518985732-79.698864184598278,0-134.832965699311899,30.247187102315365-165.414304465781242,90.72309988903362-16.376200756290928,32.409019139473457-25.422295531763666,77.336725763127106-27.138284326416397,134.783119870957307H22.615236938680937c1.292299253638703-80.547166337522867,16.153740670486513-146.242121967152343,44.584324250542522-197.075636179934008C117.599232081141054,44.805861265451313,206.545420496421684,0,334.059357065658332,0c105.968538798391819,0,183.396648580168403,28.652120594964799,232.291713912491105,85.937900366987378,48.885834623370101,57.295010480976998,73.337982644008662,121.05151723014751,73.337982644008662,191.260289538558936,0,74.094900778283773-26.067522087687394,137.417564206589304-78.184104845155161,189.967990284922053-30.156726154558783,30.590569475423763-84.221911572332829,67.634327580981335-162.18447940257829,111.138658883841345l-88.522498874265693,49.107371638277982c-42.222185829069531,23.261386565500288-75.387200031921566,45.452010892271574-99.507042530196486,66.553411562405017-43.079718690948539,37.476678355527838-70.218003017365845,79.051791486883303-81.414852979251918,124.706877976153919h505.28993124371118v109.845436559307927H0c4.300587301931046-79.688710404747326,20.77740278582769-149.039026780385029,49.430446451688113-208.060179835863892Z"/></svg>